<svg width="723" height="680" viewBox="0 0 723 680" fill="none" xmlns="http://www.w3.org/2000/svg">
<path d="M395.077 650.794C455.886 649.923 493.327 710.215 575.534 657.912C656.9 604.48 630.721 529.839 650.967 492.775C671.212 455.711 725.095 410.174 722.766 365.198C720.437 320.222 697.657 300.245 670.443 266.063C643.228 231.88 701.874 137.922 638.929 85.8236C575.983 33.725 509.502 92.407 426.306 33.7492C343.111 -24.9086 253.076 2.14751 208.27 54.5667C163.464 106.986 88.9376 74.704 52.0425 128.314C15.1473 181.925 64.618 229.487 17.8586 355.32C-28.9008 481.152 30.2618 494.574 89.1716 536.538C148.081 578.502 132.174 633.768 227.489 665.671C322.804 697.573 334.268 651.666 395.077 650.794Z" fill="#F3C471"/>
</svg>
