<svg id="Layer_2" data-name="Layer 2" xmlns="http://www.w3.org/2000/svg" width="823.62" height="600.99" viewBox="0 0 823.62 600.99">
  <defs>
    <style>
      .cls-1 {
        fill: #242d63;
      }

      .cls-2 {
        fill: #808ac2;
      }

      .cls-3 {
        fill: #f297b9;
      }

      .cls-4 {
        fill: #38565b;
      }

      .cls-5 {
        fill: #f1c371;
      }
    </style>
  </defs>
  <path class="cls-1" d="M663.68,386.61c-7.88-12.85-20.43-9.31-31.59-1.2-10.57,7.68-20.16,19.32-13.84,29.62,7.1,11.6,19.43,7.55,31.11-1.21C659,406.57,669.67,396.39,663.68,386.61Z"/>
  <path class="cls-1" d="M326.22,271c15.75,24.94,42.45-7.7,49.39,3.29,14.24,22.55-100.48,50.65-81,81.51,21.27,33.68,93.17-13.52,144.46-45.91s134.45-87.69,113.53-120.8-66.38,38.1-79.08,17.43c-15-23.68,116.48-69.63,89.07-113-20.65-32.69-67.7,33.89-132.37,74.74S306.73,240.13,326.22,271Z"/>
  <path class="cls-2" d="M525.05,311.48C555.67,360,652.13,218.33,668.31,244c8.74,13.83-31.13,25.35-20.33,42.45s24.35,7.75,96.11-37.59,84-71.72,70.13-93.7-49.41,35.38-60.9,17.18c-20.65-32.69,94.35-61.18,62.55-111.53s-122,97.3-140.87,67.43c-11.81-18.69,21.71-20.55,7.71-42.72-13.38-21.18-42.6,2.79-69,26.48-25.32,22.75-48.3,44.5-37.73,61.23,21.56,34.14,53.74-18,66.2,1.73C660.14,203.28,494.43,263,525.05,311.48Z"/>
  <path class="cls-3" d="M336.37-75.74C312.85-128,197.49-1.33,185.06-29c-6.71-14.93,75.53-35.22,55.54-66.86-21.37-33.83-52.48,16.59-129.89,51.41S17.47,14.83,28.14,38.54,82,10.44,90.85,30.07c15.86,35.26-102,47.34-77.57,101.65s134.43-79.23,148.93-47c9.07,20.17-24.38,17.3-13.63,41.22,10.28,22.84,42.57,3.21,72-16.55,28.26-19,54.06-37.29,45.94-55.33-16.56-36.83-55.74,10.27-65.31-11C187.45,12.44,359.89-23.46,336.37-75.74Z"/>
  <path class="cls-1" d="M55.14,186.92c11,17.44,28.13,12.37,43.25,1.07,14.32-10.7,27.22-26.81,18.39-40.79-9.94-15.74-26.73-10-42.55,2.23C61.15,159.52,46.76,173.66,55.14,186.92Z"/>
  <path class="cls-4" d="M231,591c9.66,15.3,24.67,10.85,37.93.94,12.57-9.39,23.88-23.52,16.14-35.78-8.72-13.8-23.45-8.75-37.32,2C236.23,567,223.6,579.39,231,591Z"/>
  <path class="cls-5" d="M411.24,109c-21.78-34.49,40.94-33.65,26.34-56.76S287.13,192.56,252.69,138s120-68.71,98.92-102.1C340.75,18.74,315,74.05,295.66,43.47,265.85-3.73,343-12,385.4-38.84s78.52-84.48,103.26-45.31c22.43,35.51-55,41.23-36.82,70s101.07-84.35,130-38.55c20.68,32.74-10.63,54.61-61.93,87S432.38,142.41,411.24,109Z"/>
  <path class="cls-3" d="M580.16,60.63C603.51,109.87,686.76,1,697.66,24c6.38,13.46-17.72,16.77-6.5,40.41s39.9-1,69.81-27,46.92-44.2,39.2-60.46c-14.85-31.32-43.23,17.74-50.3,2.83S851.58-79.18,830.94-122.7,741.26-85.62,692.27-46.78,564.59,27.8,580.16,60.63Z"/>
  <path class="cls-5" d="M199.35,525.71c19.84,50.76,110.52-52,119.78-28.27,5.42,13.87-18.85,15.49-9.32,39.86s39.87,1.77,71.54-22.06,49.9-40.8,43.35-57.57c-12.62-32.28-44.37,14.66-50.38-.7s142.14-76.16,124.61-121-128.6,55.19-180.2,90.49S186.12,491.88,199.35,525.71Z"/>
  <path class="cls-2" d="M228.9,406.36c13.68,21.66,54.52-4.14,39.13-28.5S209.2,375.17,228.9,406.36Z"/>
  <path class="cls-3" d="M397.18,123.55c-19.17-15.88-66.32,21.52-40.48,42.93S422.85,144.81,397.18,123.55Z"/>
  <path class="cls-4" d="M334.59,170.68c33.76,53.44-101.4,70.61-80.22,104.15,10.68,16.91,29.59-18.69,44,4.13,10.46,16.56-22.62,37-58,59.89-36.84,23.81-76.56,49.17-92.77,23.51-19.41-30.72,64.41-36,50-58.78-21.18-33.54-142.57,130.66-186,61.9S165.85,287,140.58,247c-17.63-27.9-58.9,52.19-83.47,13.3C34.86,225,91.35,211.14,136.67,184c42.54-25.48,74.36-63.91,93.94-32.91,23.85,37.76-33.8,32-17.69,57.48C230,235.6,308.72,129.73,334.59,170.68Z"/>
</svg>
