<svg id="Layer_2" data-name="Layer 2" xmlns="http://www.w3.org/2000/svg" width="652.5" height="464.24" viewBox="0 0 652.5 464.24">
  <defs>
    <style>
      .cls-1 {
        fill: #f297b9;
      }

      .cls-2 {
        fill: #f1c371;
      }

      .cls-3 {
        fill: #242d63;
      }

      .cls-4 {
        fill: #808ac2;
      }
    </style>
  </defs>
  <path class="cls-1" d="M337.25,234c-23.52-52.28-138.88,74.41-151.31,46.78-6.72-14.93,75.52-35.21,55.54-66.85-21.38-33.84-52.48,16.58-129.9,51.41S18.35,324.59,29,348.3s53.88-28.1,62.71-8.47c15.86,35.27-102,47.34-77.57,101.66s134.44-79.24,148.93-47c9.07,20.16-24.38,17.3-13.62,41.21,10.27,22.85,42.57,3.21,72-16.54,28.26-19,54.06-37.3,45.95-55.34-16.57-36.82-55.74,10.28-65.31-11C188.32,322.21,360.77,286.31,337.25,234Z"/>
  <path class="cls-2" d="M412.11,418.71c-21.78-34.48,40.94-33.64,26.35-56.75S288,502.33,253.57,447.8s120-68.71,98.92-102.11c-10.86-17.19-36.64,38.12-55.95,7.55-29.82-47.21,47.33-55.52,89.74-82.31s78.51-84.49,103.25-45.31c22.43,35.5-55,41.23-36.81,70s101.06-84.35,130-38.55c20.69,32.75-10.63,54.62-61.93,87S433.25,452.18,412.11,418.71Z"/>
  <path class="cls-3" d="M640.23,37.37c-20-50.69-110.34,52.35-119.68,28.69-5.47-13.85,34.66-20.79,22.22-43.7-16.45-30.31-35.59,3.07-76,27.84-33.78,20.72-67.71,27.54-52.92,51C432.39,130.46,461,88.94,468.21,106c10.27,24.42-108.14,52.71-90.45,97.51s92-31,143.43-66.49S653.58,71.17,640.23,37.37Z"/>
  <path class="cls-4" d="M510.65,213c16.38,25.92,65.27-5,46.85-34.13S487.06,175.65,510.65,213Z"/>
  <path class="cls-2" d="M378.21,111.63c-21.34-12.8-62.32,31.27-33.54,48.54S406.79,128.79,378.21,111.63Z"/>
</svg>
