<svg id="logo" data-name="logo" xmlns="http://www.w3.org/2000/svg" width="250" height="250" viewBox="0 0 250 250">
  <defs>
    <style>
      .cls-1 {
        fill: #252b62;
      }
    </style>
  </defs>
  <g id="circle">
    <path class="cls-1" d="M125,18.47A106.53,106.53,0,1,1,18.47,125,106.65,106.65,0,0,1,125,18.47M125,0A125,125,0,1,0,250,125,125,125,0,0,0,125,0Z"/>
  </g>
  <circle id="dot-left" class="cls-1" cx="86.79" cy="65.86" r="16.67"/>
  <circle id="dot-right" class="cls-1" cx="172.87" cy="164.4" r="20.37"/>
  <path id="v-blob" class="cls-1" d="M183,67.68c7.45,8.54,14.25,34.14-2.71,51C166,133,154.71,130.14,144.61,134.5c-8.74,3.78-16.93,18.2-13.12,29,7.8,21.66-2.68,36.85-17.54,41.58-16.38,4.49-32.45-5.85-36.6-20-4.27-14.56,3.9-18.93-2.51-33.12s-18.21-8.79-27.73-23.12c-6-9.06-3.9-27.1,11.74-33.58C71.68,90,88.21,97.15,90.41,114.22c1.9,14.76-6.51,17.53-2.63,27,5.18,12.64,23.68,9.52,29.66-1.46,3.16-5.8,5.92-17.3.28-26.83C105.51,92.28,114,65.66,133.05,55.83,144.57,49.9,166,48.08,183,67.68Z"/>
</svg>
