<svg id="Layer_2" data-name="Layer 2" xmlns="http://www.w3.org/2000/svg" width="588.84" height="485.54" viewBox="0 0 588.84 485.54">
  <defs>
    <style>
      .cls-1 {
        fill: #242d63;
      }

      .cls-2 {
        fill: #38565b;
      }

      .cls-3 {
        fill: #f297b9;
      }

      .cls-4 {
        fill: #f1c371;
      }
    </style>
  </defs>
  <path id="bdot" class="cls-1" d="M353.33,249.11c11,17.44,28.13,12.36,43.25,1.06,14.32-10.7,27.22-26.81,18.39-40.79-9.94-15.73-26.73-10-42.54,2.24C359.35,221.71,345,235.84,353.33,249.11Z"/>
  <path id="g-blob" class="cls-2" d="M163.57,423.22c-21.78-34.49,40.94-33.65,26.35-56.76S39.47,506.83,5,452.3,125,383.59,104,350.19C93.09,333,67.31,388.32,48,357.74c-29.82-47.2,47.33-55.52,89.74-82.31S216.25,191,241,230.12c22.43,35.51-55,41.23-36.82,70s101.07-84.35,130-38.55c20.69,32.75-10.63,54.62-61.93,87S184.71,456.68,163.57,423.22Z"/>
  <path id="p-blob" class="cls-3" d="M332.49,361.36c23.36,49.24,106.6-59.6,117.5-36.62,6.39,13.46-17.71,16.77-6.5,40.41s39.91-1,69.82-27,46.91-44.2,39.2-60.46c-14.86-31.32-43.24,17.74-50.31,2.83s101.72-59,81.08-102.46S493.6,215.1,444.61,254,316.92,328.53,332.49,361.36Z"/>
  <path id="y-blob" class="cls-4" d="M391.69,41.88C371.68-8.81,281.35,94.22,272,70.57c-5.47-13.86,34.65-20.8,22.22-43.71-16.46-30.3-35.59,3.07-76,27.84-33.78,20.72-67.71,27.55-52.92,51,18.51,29.31,47.14-12.2,54.33,4.88C229.94,135,111.53,163.24,129.22,208s92-31,143.43-66.48S405,75.67,391.69,41.88Z"/>
  <path id="pdot" class="cls-3" d="M149.51,437.81c-19.16-15.87-66.32,21.52-40.48,42.93S175.18,459.08,149.51,437.81Z"/>
  <path id="gdot" class="cls-2" d="M129.67,116.14c-21.34-12.81-62.32,31.27-33.54,48.54S158.25,133.29,129.67,116.14Z"/>
</svg>
